<svg xmlns="http://www.w3.org/2000/svg" fill="none" viewBox="0 0 800 400">
  <path fill="#EDF2F7" fill-rule="evenodd" d="M800 75h-85v57.631c-.679.333-1.352.677-2.019 1.029-20.074 10.619-34.749 30.083-38.834 53.201A75.449 75.449 0 00673 200c0 4.475.392 8.859 1.144 13.119 4.08 23.127 18.757 42.599 38.837 53.221.667.352 1.34.696 2.019 1.029V325h85v-5h-80V80h80v-5zm-85 186.749a70.2 70.2 0 01-5-2.951c-15.049-9.746-26.119-25.112-30.239-43.127A70.247 70.247 0 01678 200c0-3.45.25-6.842.732-10.159 2.963-20.379 14.706-37.913 31.268-48.639a70.2 70.2 0 015-2.951v123.498zM400.469 129.963l-2.338.061C360.336 131.014 330 161.965 330 200s30.336 68.986 68.131 69.976l2.338.061 2.334-.092C440.162 268.475 470 237.721 470 200s-29.838-68.475-67.197-69.945l-2.334-.092zM398 274.974V400h5V274.941c40.031-1.575 72-34.524 72-74.941s-31.969-73.366-72-74.941V0h-5v125.026c-40.497 1.06-73 34.221-73 74.974 0 40.753 32.503 73.914 73 74.974z" clip-rule="evenodd"/>
  <circle cx="400" cy="200" r="5" fill="#EDF2F7"/>
  <path fill="#EDF2F7" fill-rule="evenodd" d="M0 325h85v-57.631a76.967 76.967 0 002.019-1.029c20.074-10.619 34.749-30.083 38.834-53.201A75.449 75.449 0 00127 200a75.52 75.52 0 00-1.143-13.119c-4.081-23.127-18.758-42.599-38.838-53.221A76.967 76.967 0 0085 132.631V75H0v5h80v240H0v5zm85-186.749a70.044 70.044 0 015 2.951c15.049 9.746 26.119 25.112 30.239 43.127A70.188 70.188 0 01122 200c0 3.45-.249 6.842-.732 10.159-2.962 20.379-14.706 37.913-31.268 48.639a70.044 70.044 0 01-5 2.951V138.251z" clip-rule="evenodd"/>
</svg>
